<?xml version="1.0" standalone="no"?>
<!DOCTYPE svg PUBLIC "-//W3C//DTD SVG 20010904//EN"
 "http://www.w3.org/TR/2001/REC-SVG-20010904/DTD/svg10.dtd">
<svg version="1.0" xmlns="http://www.w3.org/2000/svg"
 width="900.000000pt" height="411.000000pt" viewBox="0 0 900.000000 411.000000"
 preserveAspectRatio="xMidYMid meet">
<metadata>
Created by potrace 1.10, written by Peter Selinger 2001-2011
</metadata>
<g transform="translate(0.000000,411.000000) scale(0.100000,-0.100000)"
fill="#000000" stroke="none">
<path d="M1676 3478 c-62 -8 -83 -18 -142 -70 -71 -62 -74 -78 -74 -394 0
-320 -4 -305 85 -312 45 -4 54 -2 59 15 3 10 5 140 4 288 -3 246 -1 272 15
297 10 14 25 29 34 33 9 3 239 6 511 5 539 0 531 1 552 -56 6 -16 10 -413 10
-1023 l0 -998 -23 -21 c-13 -13 -37 -26 -53 -30 -16 -4 -246 -5 -511 -2 l-483
5 -26 27 -27 27 -1 608 -1 608 -46 3 c-25 2 -57 -2 -72 -7 l-28 -11 3 -612 c3
-687 -2 -639 79 -718 73 -71 90 -73 624 -67 493 5 535 9 600 52 43 29 61 53
84 113 21 53 21 68 21 1049 0 1147 7 1063 -91 1138 -40 31 -69 45 -105 51 -64
10 -921 11 -998 2z"/>
<path d="M781 2207 l-23 -12 1 -535 c1 -294 5 -538 9 -542 10 -9 495 -14 510
-4 16 10 16 83 0 93 -7 4 -95 6 -194 4 -145 -2 -183 0 -190 10 -5 8 -7 232 -5
498 3 399 1 485 -10 492 -20 13 -70 11 -98 -4z"/>
<path d="M3400 2214 c-110 -22 -236 -96 -303 -177 -108 -132 -150 -325 -111
-513 16 -76 23 -94 70 -180 54 -97 176 -188 294 -219 116 -31 294 -13 398 39
96 48 237 202 244 266 3 24 0 25 -59 28 -67 3 -69 2 -113 -81 -23 -43 -125
-120 -188 -140 -33 -11 -84 -17 -145 -17 -85 0 -100 3 -156 31 -168 84 -242
237 -226 469 8 116 47 210 118 282 170 172 490 131 608 -78 40 -70 48 -76 111
-72 52 3 53 4 51 32 -5 63 -110 196 -208 263 -65 44 -140 64 -255 68 -58 2
-116 1 -130 -1z"/>
<path d="M4222 2208 c-11 -14 -10 -1066 1 -1085 10 -15 85 -25 106 -14 16 9
18 24 16 168 -2 87 -6 197 -10 245 -6 74 -5 89 8 94 24 9 54 -12 95 -69 22
-29 99 -117 172 -197 73 -80 144 -162 159 -182 28 -40 50 -53 104 -63 44 -9
77 1 77 23 0 9 -44 61 -97 117 -54 55 -134 141 -178 190 -44 50 -108 119 -141
155 -72 76 -72 79 2 155 27 28 101 106 164 174 146 158 186 199 233 236 20 16
37 35 37 42 0 19 -37 26 -97 18 -58 -7 -59 -8 -132 -91 -18 -22 -59 -66 -90
-99 -82 -87 -182 -203 -225 -260 -47 -62 -63 -72 -84 -52 -13 14 -13 29 -3
117 6 55 11 163 11 239 0 135 -1 139 -22 145 -39 10 -95 7 -106 -6z"/>
<path d="M5144 2207 c-13 -8 -15 -77 -13 -535 1 -290 6 -535 11 -544 8 -17 32
-18 296 -18 211 0 291 3 300 12 17 17 15 64 -5 84 -15 15 -38 16 -235 11 -198
-5 -219 -4 -227 11 -6 13 -8 339 -2 383 1 4 92 6 203 5 l202 -1 12 23 c7 14 9
35 5 50 l-8 27 -200 0 c-111 0 -205 3 -209 7 -4 4 -8 90 -8 190 -1 134 2 185
12 194 9 10 63 12 222 10 168 -3 214 0 230 11 24 17 27 71 4 80 -24 9 -573 9
-590 0z"/>
<path d="M7082 2211 c-12 -7 -14 -105 -13 -547 2 -597 -2 -564 66 -564 66 0
63 -30 67 563 4 506 3 539 -13 548 -22 11 -89 12 -107 0z"/>
<path d="M7458 2210 c-17 -10 -18 -45 -14 -552 4 -434 7 -543 18 -549 21 -14
72 -10 95 6 22 15 22 19 22 342 1 190 -4 364 -10 416 -10 74 -10 90 2 98 8 5
18 9 22 9 15 0 48 -44 81 -105 31 -57 85 -145 130 -210 11 -16 49 -73 83 -125
34 -52 86 -128 115 -169 29 -41 74 -111 100 -155 26 -45 57 -89 69 -98 23 -20
80 -24 109 -8 17 9 18 35 19 549 1 526 1 540 -18 551 -29 15 -97 12 -111 -5
-9 -11 -11 -39 -6 -103 3 -48 6 -177 7 -287 1 -110 6 -252 11 -314 5 -63 7
-125 3 -138 -8 -35 -42 -29 -66 12 -12 20 -40 65 -63 100 -22 36 -72 115 -111
176 -130 205 -349 532 -368 547 -19 16 -100 24 -119 12z"/>
<path d="M5936 2201 c-3 -4 -4 -245 -2 -535 3 -399 7 -530 16 -541 10 -12 43
-15 175 -15 327 0 476 43 597 173 60 64 92 124 119 222 18 68 21 97 16 195
-10 213 -79 338 -240 435 -104 62 -178 75 -443 75 -128 0 -235 -4 -238 -9z
m577 -146 c114 -55 165 -121 203 -260 17 -61 18 -185 3 -257 -17 -79 -62 -160
-114 -206 -94 -82 -198 -112 -393 -112 l-132 0 -11 28 c-6 15 -8 45 -4 66 3
22 6 205 5 406 0 201 3 370 7 374 5 5 87 6 183 4 l176 -5 77 -38z"/>
<path d="M2113 1800 c-17 -10 -37 -28 -42 -39 -16 -29 -13 -83 6 -110 19 -28
19 -87 -1 -135 -22 -53 -30 -115 -16 -131 19 -22 208 -21 217 1 3 8 -2 50 -12
92 -27 117 -29 148 -11 174 21 30 20 97 -2 124 -38 47 -88 56 -139 24z"/>
</g>
</svg>
